<svg width="85" height="85" viewBox="0 0 85 85" fill="none" xmlns="http://www.w3.org/2000/svg">
<path id="Vector" d="M83.364 21.3968L83.3444 21.4144L83.3259 21.433L65.0252 39.7336C63.4748 41.284 63.4748 43.9792 65.0252 45.5296L83.3259 63.8302C84.0952 64.5996 84.0952 66.0285 83.3259 66.7978L66.7007 83.423C65.9313 84.1924 64.5024 84.1924 63.7331 83.423L45.4325 65.1225C43.882 63.572 41.1868 63.572 39.6364 65.1225L21.3358 83.423C20.5665 84.1924 19.1376 84.1924 18.3682 83.423L1.74304 66.7978C0.973672 66.0285 0.973674 64.5996 1.74304 63.8302L20.0436 45.5296C21.594 43.9792 21.594 41.284 20.0436 39.7336L1.74304 21.433L1.03594 22.1401L1.74304 21.433C0.973673 20.6636 0.973673 19.2348 1.74304 18.4654L18.3682 1.84021C19.1376 1.07084 20.5665 1.07084 21.3358 1.84021L22.0429 1.13311L21.3358 1.84021L39.6364 20.1408C41.1868 21.6912 43.882 21.6912 45.4325 20.1408L63.7331 1.84021C64.5024 1.07084 65.9313 1.07084 66.7007 1.84021L83.3259 18.4654C84.246 19.3855 84.1895 20.6538 83.364 21.3968Z" stroke="url(#paint0_linear_163_44)" stroke-width="2"/>
<defs>
<linearGradient id="paint0_linear_163_44" x1="0.166016" y1="42.6316" x2="84.9995" y2="42.6316" gradientUnits="userSpaceOnUse">
<stop stop-color="#F7941D"/>
<stop offset="1" stop-color="#27AAE1"/>
</linearGradient>
</defs>
</svg>
